<?xml version="1.0" encoding="UTF-8"?>
<svg id="Laag_2" data-name="Laag 2" xmlns="http://www.w3.org/2000/svg" xmlns:xlink="http://www.w3.org/1999/xlink" viewBox="0 0 827.33 542.42">
  <defs>
    <style>
      .cls-1 {
        clip-path: url(#clippath-2);
      }

      .cls-2, .cls-3, .cls-4 {
        stroke-width: 0px;
      }

      .cls-2, .cls-5, .cls-6 {
        fill: none;
      }

      .cls-7 {
        clip-path: url(#clippath-1);
      }

      .cls-3 {
        fill: #010101;
      }

      .cls-8 {
        clip-path: url(#clippath);
      }

      .cls-5 {
        stroke-width: 7.97px;
      }

      .cls-5, .cls-6 {
        stroke: #1d1d1b;
      }

      .cls-9 {
        font-size: 155px;
      }

      .cls-9, .cls-4, .cls-10 {
        fill: #1d1d1b;
      }

      .cls-9, .cls-10 {
        font-family: Impact, Impact;
      }

      .cls-11 {
        clip-path: url(#clippath-3);
      }

      .cls-10 {
        font-size: 154px;
      }

      .cls-6 {
        stroke-width: 3.19px;
      }
    </style>
    <clipPath id="clippath">
      <rect class="cls-2" width="827.33" height="542.42"/>
    </clipPath>
    <clipPath id="clippath-1">
      <rect class="cls-2" width="827.33" height="542.42"/>
    </clipPath>
    <clipPath id="clippath-2">
      <rect class="cls-2" width="827.33" height="542.42"/>
    </clipPath>
    <clipPath id="clippath-3">
      <rect class="cls-2" width="827.33" height="542.42"/>
    </clipPath>
  </defs>
  <g id="Laag_1-2" data-name="Laag 1">
    <g>
      <g class="cls-8">
        <path class="cls-5" d="M20.09,274.43c3.37.53,5.52.67,8.2-1.8,2.19-2.02,3.77-4.77,5.13-7.46,2.96-5.84,5.02-12.24,7.3-18.41,4.1-11.13,7.58-22.5,10.91-33.91,3.1-10.61,6.02-21.28,8.84-31.97,0,0,26.19-93.56,65.48-107.59,0,0,45.84-25.73,88.4,33.92,16.15,23.7,30.23,48.76,44.62,73.69,4.12,7.15,8.31,14.25,12.66,21.24,8.28,13.3,18.39,25.32,30.1,35.25,11.73,9.94,25.01,17.81,39.12,23.14,7.91,2.99,16.1,5.19,24.41,6.48,24.05,3.73,49.13-.47,70.8-12.36,20.97-11.51,38.09-29.92,51.78-50.23,3.95-5.87,7.65-11.94,11.11-18.16,9.25-16.64,14.94-35.06,16.71-54.33.57-6.17.81-12.38.84-18.58.11-20.74-1.74-41.74-10.24-60.68-6.34-14.14-16.68-27.96-30.42-34.31-21.87-10.11-39.58,12.6-47.3,31.72-2.12,5.25-3.83,10.71-5.07,16.27-5.67,25.54-7.34,53.85-3.88,79.85,2.63,19.75,9.06,39.19,20.8,54.89,3.81,5.09,8.1,9.75,12.76,13.94"/>
        <path class="cls-4" d="M321.73,86.34c-1.94,1.18-3.29,4.58-4.07,6.34-.76,1.72-1.34,3.58-2.21,5.25-4.11,7.88-8.31,16.17-11.68,24.63-2.64,6.64-1.73,14.6,1.74,20.75,3.8,6.75,10.37,10.37,17.67,10.35,4.34-.01,8.83-1.28,12.25-4.25,7.02-6.1,8.18-16.74,5.97-25.57-.72-2.88-1.71-5.68-2.7-8.47-2.1-5.9-4.32-11.75-6.99-17.38-1.74-3.67-3.6-9.86-7.34-11.75-.98-.49-1.86-.38-2.64.1"/>
        <path class="cls-5" d="M243.61,100.3s34.05,61.8,51.51,96.98c17.46,35.18,55.88,57.05,77.71,56.1,21.83-.95,84.69-6.65,106.52-82.72,0,0,33.18-109.82-25.32-152.6"/>
        <path class="cls-5" d="M428.06,236.81c-7.29-6.33-15.26-15.21-21.02-23.34-13.09-18.5-22.72-40.37-26.93-63.84-5.36-29.85-2.13-63.18,8.41-91.1,2.87-7.61,6.4-14.92,10.67-21.6,6.15-9.6,13.87-17.84,22.75-23.95,4.77-3.29,9.98-7.17,15.57-8.13,2.14-.36,4.49-.12,6.64-.18,6.41-.18,12.82-.36,19.23-.53,7.94-.21,16.61,6.02,22.72,11.21,19.31,16.42,25.35,42.63,28.25,68.82.96,8.7,1.78,17.43,3.23,26.05,1.93,11.46,5.5,22.4,9.29,33.18,3.77,10.72,7.61,21.43,12.15,31.75,2.64,6,5.52,11.86,8.73,17.47,8.13,14.19,18.47,26.85,30.99,35.91,7.54,5.46,15.79,9.55,24.38,12.22"/>
        <path class="cls-5" d="M621.43,275.85c-1.24.01-2.47.02-3.71.03-3.55.03-7.1.05-10.65.08-5.63.04-11.26.09-16.89.13-7.47.06-14.95.12-22.42.17-9.08.07-18.16.14-27.24.21-10.45.08-20.9.16-31.36.24-11.59.09-23.18.18-34.76.27-12.49.1-24.97.2-37.46.29-13.15.1-26.3.21-39.45.31l-40.74.32c-13.77.11-27.54.21-41.31.32-13.73.11-27.45.21-41.18.32-13.45.11-26.89.21-40.34.32-12.93.1-25.86.2-38.79.3-12.18.1-24.36.19-36.54.29-11.19.09-22.38.17-33.57.26-9.97.08-19.93.16-29.9.23-8.48.07-16.96.13-25.45.2-6.82.05-13.64.11-20.46.16-7.97.06-15.95.31-23.92.18,6.08-.91,11.14-5.65,15.83-9.54,5.24-4.34,10.1-9.11,14.49-14.42,8.78-10.63,15.7-22.86,21.34-35.67,8.29-18.83,14.06-38.77,21.59-57.93,6.62-16.86,14.69-33.51,25.68-47.61,12.44-15.95,29.26-27.96,49.11-28.87,5.6-.26,11.23.37,16.66,1.86,4.81,1.33,9.49,3.36,13.67,6.25"/>
        <path class="cls-4" d="M148.1,38.95c-.81-.17-1.63-.33-2.45-.46-3.09-.47-6.25-.35-9.32-.94-2.15-.42-2.36-2.65-2.64-4.62-.35-2.5-.07-5.92-1.68-7.97-1.51-1.91-3.7-1.08-5.06.57-3.28,3.99-3.69,10.74-3.64,15.76.05,6.28.79,12.57,1.56,18.79.28,2.25.5,4.96,2.23,6.54,1.88,1.72,4.49,1.14,6.71.72,5.71-1.1,11.55-1.77,17.35-1.87,5.36-.1,10.57.94,15.58,2.98,5.23,2.12,10.53,4.37,15.47,7.18,8.88,5.06,15.29,13.39,22.11,21.08,3.14,3.55,6.46,7.42,10.85,9.15,5.01,1.97,10.81.93,15.89-.17,7.67-1.67,16.1-4.64,20.85-11.79,6.13-9.23,1.38-20.26-4.24-28.28-2.51-3.58-6.03-8.19-10.16-9.69-1.84-.67-3.33.36-2.07,2.31.75,1.17,2.78,3.24.95,4.46-.95.64-2.45.39-3.51.32-1.44-.09-2.88-.3-4.32-.42-2.88-.26-5.8-.22-8.69-.22-2.98,0-5.96.09-8.93.4-2.75.28-5.55.87-8.27.04-2.67-.81-4.83-2.76-7.11-4.35-4.69-3.27-10.05-5.45-15.18-7.79-5.15-2.34-10.36-4.52-15.63-6.52-5.45-2.06-10.96-4.01-16.64-5.22"/>
        <path class="cls-5" d="M470.18,230.46s43.66,45.4,153.67,45.4"/>
      </g>
      <line class="cls-5" x1="103.04" y1="152.61" x2="103.04" y2="279.85"/>
      <line class="cls-5" x1="140.19" y1="99" x2="140.19" y2="279.02"/>
      <g class="cls-7">
        <path class="cls-5" d="M178.98,86.25c-3.47,2.66-4.35,193.6-4.35,193.6"/>
      </g>
      <line class="cls-5" x1="213.55" y1="105.36" x2="213.55" y2="279.02"/>
      <line class="cls-5" x1="252.34" y1="168.51" x2="252.34" y2="279.02"/>
      <line class="cls-5" x1="288.14" y1="225.58" x2="288.14" y2="279"/>
      <line class="cls-5" x1="324.74" y1="253.27" x2="324.74" y2="277.39"/>
      <g class="cls-1">
        <path class="cls-5" d="M378.43,137.69c-8.45,27.68-14.87,56.71-30.82,81.16-4.54,6.96-9.68,13.57-15.75,19.21"/>
      </g>
      <line class="cls-5" x1="354.88" y1="250.38" x2="354.88" y2="205.28"/>
      <line class="cls-5" x1="391.17" y1="183.25" x2="391.17" y2="251.66"/>
      <line class="cls-5" x1="434.82" y1="255.6" x2="434.82" y2="275.85"/>
      <line class="cls-5" x1="469.65" y1="229.86" x2="469.65" y2="275.85"/>
      <line class="cls-5" x1="506.42" y1="170.62" x2="506.42" y2="275.85"/>
      <line class="cls-5" x1="542.22" y1="180.68" x2="542.22" y2="276.68"/>
      <line class="cls-5" x1="573.65" y1="223.24" x2="573.65" y2="276.68"/>
      <line class="cls-6" x1="354.88" y1="277.39" x2="354.88" y2="264.98"/>
      <line class="cls-6" x1="391.17" y1="278" x2="391.17" y2="267.8"/>
      <g class="cls-11">
        <path class="cls-3" d="M150.64,29.88c-.46-.33-.84-.76-1.27-1.12-.44-.36-.9-.69-1.3-1.1-.51-.53-.93-1.15-1.37-1.74-.84-1.13-1.69-2.28-2.23-3.62-.54-1.36-.78-2.88-.64-4.36.13-1.3.58-2.62,1.47-3.54.9-.93,2.15-1.31,3.38-1.41,1.3-.1,2.68,0,3.92.44,1.19.42,2.18,1.25,2.95,2.31.82,1.13,1.39,2.46,1.73,3.84.38,1.53.37,3.07.19,4.64-.18,1.55-.46,3.1-.22,4.67.22,1.44.9,2.62,1.73,3.75.41.56.84,1.11,1.17,1.73.36.65.56,1.36.66,2.11.1.77.14,1.56.23,2.33.1.8.23,1.59.36,2.38.05.31.44,1.5,0,1.65-.25.08-.66-.1-.91-.13-.36-.04-.71-.08-1.05-.19-1.42-.45-2.81-1.08-4.22-1.57-1.4-.49-2.83-.85-4.29-1.1-1.45-.25-2.92-.53-4.39-.53-.52,0-1.15.11-1.6-.23-.49-.38-.48-1.14-.48-1.73,0-1.32.33-2.66,1.21-3.63.45-.5,1.02-.87,1.62-1.15.6-.28,1.27-.4,1.85-.74.69-.4,1.46-1.25,1.31-2.17"/>
        <path class="cls-3" d="M175.48,31.7c-.01-.05-.02-.11-.04-.16-.39-.03-.51-.39-.76-.64-.24-.25-.5-.5-.75-.75-.29-.29-.56-.45-.85-.71-.23-.21-.42-.49-.65-.7-.44-.4-.92-.78-1.29-1.27-.11-.14-.22-.31-.32-.45-.11-.16-.18-.36-.28-.5-.08-.11-.22-.17-.29-.29-.13-.2-.16-.54-.28-.77-.06-.12-.25-.33-.29-.44-.05-.12-.06-.24-.03-.36,0-.14-.07-.22-.2-.24-.42-.83-.56-1.58-.56-2.58,0-.91-.12-1.92,0-2.83.05-.44.2-.71.19-1.21,0-.44.04-.84.18-1.22.14-.36.36-.65.53-1,.14-.3.43-.83.46-1.17.36,0,.66-.57.91-.81.08-.07.23-.24.31-.3.11-.08.29-.11.38-.19.28-.24.49-.5.81-.72.11-.08.28-.2.37-.3.1-.09.18-.2.23-.33.11-.05.22-.06.34-.03.63-.37,1.15-.51,1.83-.66.12-.03.24-.14.41-.16.18-.03.39,0,.57,0,.4,0,.95-.11,1.33-.01.17.04.19.18.36.22.18.05.4-.04.58-.01.33.04.5.2.8.36.5.26,1.02.67,1.41,1.11.36.39.89.81,1,1.35.04.2-.02.37.03.57.02.08.15.29.19.4.04.09.1.39.14.46.09.18.26.27.34.44.1.19,0,.37.03.57.04.22.17.38.21.6.06.37,0,.83,0,1.21,0,.87,0,1.75,0,2.62,0,.19.03.42,0,.61-.02.19-.12.31-.15.44-.07.37-.04.78-.04,1.16,0,.47-.05.78-.15,1.21-.1.45-.15.77-.22,1.21-.03.22-.17.38-.21.6-.03.2.04.41.01.61-.05.39-.2.58-.19,1,0,.43-.15.61-.19,1-.02.2.06.43.01.62-.06.25-.17.31-.2.59-.02.19.06.38-.03.57-.06.12-.24.16-.3.28-.16.28-.15.85-.22,1.17-.18.82-.32,1.72-.15,2.58.05.25.24.65.29.9.1.44.2.59.42.97.31.52.7,1.02.99,1.55.17.33.31.71.47,1.07.14.32.14.64.27.96.06.15.24.25.3.44.06.2.02.37.08.57.11.4.28.82.38,1.26.1.46.37.8.53,1.21.12.31.16.65.17,1.01.02.43.2.76.19,1.21,0,.47,0,.94,0,1.41v2.42c0,.39.05.83,0,1.21-.05.44-.2.71-.19,1.21,0,.35.13.87-.17,1.02-.23.11-.75-.14-.95-.21-.24-.09-.68-.08-.9-.24-.16-.11-.23-.26-.42-.37-.19-.11-.35-.16-.55-.25-.67-.29-1.3-.75-1.93-1.1-.63-.35-1.2-.71-1.84-1.01-.6-.28-1.11-.67-1.69-.91-.32-.13-.67-.22-.95-.35-.36-.16-.74-.45-1.12-.57-.37-.11-.77-.16-1.13-.24-.35-.08-.55-.21-.94-.2-.18,0-.39.03-.57,0-.18-.03-.29-.13-.41-.16-.4-.09-.83,0-1.23-.09-.04-.1-.12-.15-.22-.17-.13,0-.26,0-.39.02-.28-.03-.44-.14-.7-.26-.4-.18-.82-.33-1.22-.51-.38-.17-.71-.44-1.03-.71-.48-.4-.63-.75-.76-1.36-.13-.58-.23-.99-.23-1.61,0-.61,0-1.21,0-1.82,0-.65.08-.92.33-1.46.21-.46.41-.92.66-1.36.23-.42.57-.87.89-1.22.11-.12.38-.36.52-.45.29-.18.47-.1.81-.14.44-.06.9-.22,1.31-.41.17-.08.38-.12.56-.2.12.03.23.02.35-.03.11-.07.17-.24.27-.32.36-.29.88-.35,1.24-.69.02-.11.04-.21.07-.32.1-.03.2-.06.3-.09.18-.19.24-.39.37-.62.21-.38.48-.69.66-1.1.07-.15.25-.35.29-.5.09-.31-.01-.62.07-.93l.16-.04"/>
        <path class="cls-3" d="M199.88,38.8c-.48-.27-1.15-1.29-1.49-1.77-.55-.77-.62-1.19-.77-2.2-.2-1.4-.45-3.3-.26-4.65.24-1.67.04-3.18.61-4.79.51-1.45,2.36-2.52,3.58-3.02.69-.28,1.5-.35,2.21-.45.7-.09,1.55-.14,2.25-.05,1.45.19,2.49,1.22,3.58,2.2.67.6,1.25.81,1.35,1.76.1.93,0,1.93,0,2.87,0,.88-.03,1.63-.21,2.41-.15.65-.66,1.65-.6,2.35-.02-.11-.08-.16-.2-.14-.6.66-1.07,2.2-1.25,3.08-.04.2.08.46.03.66-.08.29-.36.37-.45.66-.1.32-.15.97-.19,1.31-.08.7-.17,2.12.2,2.7.46.73,1.81.83,2.48,1.48,1.07,1.03.64,3.41.25,4.67-.49,1.55-1.08,3.06-1.64,4.57-.24.65-.38,1.51-.46,2.18-.06.51.01,1.05-.04,1.55-.06.58-.23,1.13-.16,1.77.09.78.21,1.54.21,2.41,0,1.35-.24,1.58-1.44,1.75-2.92.42-6.6.51-8.97-1.37-.94-.74-1.81-1.6-2.72-2.36-1.04-.86-2.22-1.07-3.24-2.04-.75-.72-1.54-1.5-1.94-2.52-.53-1.34.21-2.75.68-4.02.44-1.2.81-2.46,1.48-3.51.81-1.27,1.56-1.83,2.82-2.59,2.12-1.28,3.47-3.12,3.49-5.77"/>
        <path class="cls-5" d="M445.52,248.27c5.67,2.22,11.08,5.05,16.81,7.02,6.11,2.1,10.05,3.54,15.5,4.57,11.09,2.08,21.28,4.53,32.04,6.57,9.06,1.72,18.23,2.7,27.4,3.45,2.67.22,5.35.42,8.02.62,3.41.25,10.76,1.02,14.17,1.24"/>
      </g>
      <text class="cls-10" transform="translate(19.53 434.89) scale(.93 1)"><tspan x="0" y="0">THE CUR</tspan></text>
      <text class="cls-9" transform="translate(486.18 434.89) scale(.93 1)"><tspan x="0" y="0">VE</tspan></text>
    </g>
  </g>
</svg>